<svg data-v-0dd9719b="" version="1.0" xmlns="http://www.w3.org/2000/svg" xmlns:xlink="http://www.w3.org/1999/xlink" width="100%" height="100%" viewBox="0 0 340.000000 250.000000" preserveAspectRatio="xMidYMid meet" color-interpolation-filters="sRGB" style="margin: auto;"> <rect data-v-0dd9719b="" x="0" y="0" width="100%" height="100%" fill="#fff" fill-opacity="1" class="background"></rect> <rect data-v-0dd9719b="" x="0" y="0" width="100%" height="100%" fill="url(#watermark)" fill-opacity="1" class="watermarklayer"></rect> <g data-v-0dd9719b="" fill="#333" class="icon-text-wrapper icon-svg-group iconsvg" transform="translate(54.959999084472656,94.83374786376953)"><g class="iconsvg-imagesvg" transform="translate(0,0.49060630798339844)"><g><rect fill="#333" fill-opacity="0" stroke-width="2" x="0" y="0" width="60" height="59.35129039597202" class="image-rect"></rect> <svg x="0" y="0" width="60" height="59.35129039597202" filtersec="colorsb4078886188" class="image-svg-svg primary" style="overflow: visible;"><svg xmlns="http://www.w3.org/2000/svg" viewBox="0.01999998837709427 0 304.0574035644531 300.7699890136719"><path d="M271.19 56.01A152.11 152.11 0 0 0 191.91 3.7c-22 25.86-42.16 53.23-55.59 83.66a206.54 206.54 0 0 0-10.22 28.55 411.54 411.54 0 0 1 97.92-26.57c15.32-2.18 32.66-2.93 44.4 7.16 13.84 11.9 13.56 33.38 9.34 51.14-11.89 50-45 92-80.07 129.51-7.43 7.94-15 15.78-22.61 23.62a152.06 152.06 0 0 0 96.1-244.76z" fill="#0d9e5f"></path><path d="M180.74 151.82c-13.56-13-35.59-11.17-53.25-4.7a137.6 137.6 0 0 0-77.47 72.34 600.45 600.45 0 0 1 26.41-105.38A608 608 0 0 1 130.07 0 152.07 152.07 0 0 0 .02 150.46a154 154 0 0 0 .85 16.16 152.19 152.19 0 0 0 115.45 131.67q23.78-24.44 45.14-51.09c15.07-18.81 29.77-40 30.44-64.12.32-11.39-2.95-23.37-11.16-31.26z" fill="#0d9e5f"></path></svg></svg> <!----></g></g> <g transform="translate(67,0)"><g data-gra="path-name" fill-rule="" class="tp-name iconsvg-namesvg" transform="translate(0,0)"><g transform="scale(1)"><g><path d="M6.12-13.28L35.55-13.28 35.55 5.85 6.12 5.85 6.12-13.28ZM28.8-1.08L28.8-6.52 13.05-6.52 13.05-1.08 28.8-1.08ZM17.28-23.45L17.28-26.82 2.16-26.82 2.16-34.29 17.28-34.29 17.28-38.2 24.39-38.2 24.39-34.29 39.46-34.29 39.46-26.82 24.39-26.82 24.39-23.45 37.53-23.45 37.53-16.25 4.14-16.25 4.14-23.45 17.28-23.45ZM80.37-24.3L73.89-24.3 83.38-5.67 77.58-2.7 73.53-10.66 73.53 6.3 67 6.3 67-10.26 62.91-1.71 57.2-4.46 61.7-13.81 58.81-11.21 56.66-13.59 56.66 6.3 50.17 6.3 50.17-10.66 47.25-4.63 41.53-7.38 49.63-24.3 44.95-24.3 44.95-31.9 50.17-31.9 50.17-38.66 56.66-38.66 56.66-31.9 60.48-31.9 60.48-24.3 56.66-24.3 56.66-23.31 62.91-16.38 66.69-24.3 62.05-24.3 62.05-31.9 67-31.9 67-38.66 73.53-38.66 73.53-31.9 80.37-31.9 80.37-24.3ZM107.73 5.54L100.53 5.54 100.53-11.88 85.72-11.88 85.72-20.07 100.53-20.07 100.53-28.39 88.88-27.54 88.29-35.68 118.66-37.89 119.25-29.74 107.73-28.89 107.73-20.07 122.44-20.07 122.44-11.88 107.73-11.88 107.73 5.54ZM153.68-13.41L153.68-2.25 157.55-2.25 158.44-6.79 164.88-5.54 162.76 5.26 146.66 5.26 146.66-38.52 153.68-38.52 153.68-27.49 158.72-34.34 164.25-30.29 157.32-20.88 153.68-23.58 153.68-17.5 156.78-20.75 165.24-12.69 160.11-7.29 153.68-13.41ZM126.14-14.13L136.17-19.75 136.84-23.22 132.97-21.06 127.13-31.54 133.06-34.83 137.56-26.68 139.91-38.61 146.34-37.35 137.7 6.25 131.26 5 134.15-9.45 130-7.15 126.14-14.13Z" transform="translate(-2.1600000858306885, 38.65999984741211)"></path></g> <!----> <!----> <!----> <!----> <!----> <!----> <!----></g></g> <g data-gra="path-slogan" fill-rule="" class="tp-slogan iconsvg-slogansvg" fill="#333" transform="translate(5,50.96000289916992)"><rect x="0" height="1" y="4.185000896453857" width="27.020000457763672"></rect> <rect height="1" y="4.185000896453857" width="27.020000457763672" x="126.06000137329102"></rect> <g transform="translate(30.020000457763672,0)"><g transform="scale(1)"><path d="M0.19-1.92L0.19-2.77L1.27-2.77L1.27-2.16Q1.27-0.75 2.58-0.75L2.58-0.75Q3.94-0.75 3.94-2.25L3.94-2.25L3.94-8.58L5.11-8.58L5.11-2.30Q5.06 0.09 2.63 0.14L2.63 0.14Q0.33 0.09 0.19-1.92L0.19-1.92ZM7.08-8.58L8.25-8.58L8.25 0L7.08 0L7.08-8.58ZM10.22-8.58L11.39-8.58L11.39-1.03L15.75-1.03L15.75 0L10.22 0L10.22-8.58ZM17.06-8.58L18.23-8.58L18.23 0L17.06 0L17.06-8.58ZM21.61-8.58L25.92-1.64L25.92-8.58L27.05-8.58L27.05 0L25.73 0L21.38-6.94L21.33-6.94L21.33 0L20.20 0L20.20-8.58L21.61-8.58ZM37.17-1.08L36.28-1.78L36.89-2.48L37.97-1.64Q38.95-2.63 38.95-4.27L38.95-4.27Q38.77-7.64 35.95-7.83L35.95-7.83Q33.09-7.69 32.95-4.27L32.95-4.27Q33.09-0.94 35.95-0.80L35.95-0.80Q36.66-0.80 37.17-1.08L37.17-1.08ZM38.91-0.94L40.03-0.05L39.47 0.56L38.16-0.33Q37.31 0.14 35.95 0.14L35.95 0.14Q32.02 0 31.73-4.27L31.73-4.27Q31.97-8.72 35.95-8.81L35.95-8.81Q39.84-8.67 40.13-4.27L40.13-4.27Q40.08-2.20 38.91-0.94L38.91-0.94ZM41.67-8.58L42.84-8.58L42.84 0L41.67 0L41.67-8.58ZM50.48 0L49.64-2.48L46.17-2.48L45.28 0L44.11 0L47.34-8.58L48.66-8.58L51.75 0L50.48 0ZM47.91-7.31L46.55-3.52L49.22-3.52L47.95-7.31L47.91-7.31ZM54.19-8.58L58.50-1.64L58.50-8.58L59.63-8.58L59.63 0L58.31 0L53.95-6.94L53.91-6.94L53.91 0L52.78 0L52.78-8.58L54.19-8.58ZM62.25-1.03L67.55-1.03L67.55 0L60.80 0L60.80-0.94L66.05-7.59L61.17-7.59L61.17-8.58L67.55-8.58L67.55-7.59L62.25-1.03ZM69.84-5.06L74.34-5.06L74.34-8.58L75.52-8.58L75.52 0L74.34 0L74.34-3.98L69.84-3.98L69.84 0L68.67 0L68.67-8.58L69.84-8.58L69.84-5.06ZM82.97 0L82.13-2.48L78.66-2.48L77.77 0L76.59 0L79.83-8.58L81.14-8.58L84.23 0L82.97 0ZM80.39-7.31L79.03-3.52L81.70-3.52L80.44-7.31L80.39-7.31ZM92.06-4.27L92.06-4.27Q91.88-7.64 89.06-7.83L89.06-7.83Q86.20-7.69 86.06-4.27L86.06-4.27Q86.20-0.94 89.06-0.80L89.06-0.80Q91.88-0.98 92.06-4.27ZM93.23-4.27L93.23-4.27Q92.95 0 89.06 0.14L89.06 0.14Q85.13 0 84.84-4.27L84.84-4.27Q85.08-8.72 89.06-8.81L89.06-8.81Q92.95-8.67 93.23-4.27Z" transform="translate(-0.1875, 8.8125)"></path></g></g></g></g></g><defs v-gra="od"></defs></svg>